<svg xmlns="http://www.w3.org/2000/svg" viewBox="0 0 512 512">
  <defs>
    <linearGradient id="wood" x1="0%" y1="0%" x2="100%" y2="100%">
      <stop offset="0%" style="stop-color:#8B4513"/>
      <stop offset="30%" style="stop-color:#A0522D"/>
      <stop offset="70%" style="stop-color:#8B4513"/>
      <stop offset="100%" style="stop-color:#654321"/>
    </linearGradient>
    <linearGradient id="woodLight" x1="0%" y1="0%" x2="100%" y2="100%">
      <stop offset="0%" style="stop-color:#A0522D"/>
      <stop offset="50%" style="stop-color:#CD853F"/>
      <stop offset="100%" style="stop-color:#8B4513"/>
    </linearGradient>
    <linearGradient id="iron" x1="0%" y1="0%" x2="100%" y2="100%">
      <stop offset="0%" style="stop-color:#4a4a4a"/>
      <stop offset="50%" style="stop-color:#6a6a6a"/>
      <stop offset="100%" style="stop-color:#3a3a3a"/>
    </linearGradient>
  </defs>

  <!-- Outer iron rim -->
  <circle cx="256" cy="256" r="240" fill="none" stroke="url(#iron)" stroke-width="28"/>

  <!-- Wooden felloe (outer wooden ring) -->
  <circle cx="256" cy="256" r="215" fill="none" stroke="url(#wood)" stroke-width="22"/>

  <!-- Wooden spokes (12 spokes like a classic wagon wheel) -->
  <g stroke="url(#woodLight)" stroke-width="18" stroke-linecap="round">
    <!-- 12 spokes at 30-degree intervals -->
    <line x1="256" y1="60" x2="256" y2="196"/>
    <line x1="256" y1="316" x2="256" y2="452"/>
    <line x1="60" y1="256" x2="196" y2="256"/>
    <line x1="316" y1="256" x2="452" y2="256"/>
    <!-- 30 degrees -->
    <line x1="354" y1="87" x2="286" y2="204"/>
    <line x1="226" y1="308" x2="158" y2="425"/>
    <!-- 60 degrees -->
    <line x1="425" y1="158" x2="308" y2="226"/>
    <line x1="204" y1="286" x2="87" y2="354"/>
    <!-- 120 degrees -->
    <line x1="425" y1="354" x2="308" y2="286"/>
    <line x1="204" y1="226" x2="87" y2="158"/>
    <!-- 150 degrees -->
    <line x1="354" y1="425" x2="286" y2="308"/>
    <line x1="226" y1="204" x2="158" y2="87"/>
  </g>

  <!-- Hub (nave) - wooden center -->
  <circle cx="256" cy="256" r="60" fill="url(#wood)" stroke="url(#iron)" stroke-width="8"/>

  <!-- Hub iron band -->
  <circle cx="256" cy="256" r="45" fill="none" stroke="url(#iron)" stroke-width="6"/>

  <!-- Axle hole -->
  <circle cx="256" cy="256" r="18" fill="#2a2a2a"/>
  <circle cx="256" cy="256" r="12" fill="#1a1a1a"/>
</svg>
